<svg id="Layer_1" data-name="Layer 1" xmlns="http://www.w3.org/2000/svg" viewBox="0 0 444 134"><defs><style>.cls-1{fill:#f2f2f2;}</style></defs><path class="cls-1" d="M131.68,52.15l-.13,0c-6.44-4-13.09-7.82-20.4-9.74h0a61.19,61.19,0,0,0-10.73-17c-3.67-4-14.18-15.28-18.46-6.06-1.61,3.44-1.48,7.44-1,11.22,0,.33.09.65.13,1a32.16,32.16,0,0,0-6-5.27c-1.85-1.23-4.64-2.71-6.92-2-1.87.58-3.24,2.6-3.93,4.35-1.39,3.54-.65,7.1-.25,10.77s.81,7.49.92,11.26C55.7,56.66,49,65.39,51,76.6c.38,2.19,1.19,4.29,1.46,6.5a6.31,6.31,0,0,1-.1,2.45c-.53,1.9-2.62,3.31-3.71,4.9a13.69,13.69,0,0,0-2.4,5.88,10,10,0,0,0,.26,4,3.79,3.79,0,0,0,1,2.51,5.47,5.47,0,0,0,1.73,1.69,7.8,7.8,0,0,1,1.89,1.59,17.8,17.8,0,0,0,2.28,2.82,29.42,29.42,0,0,0,6.71,4.61C65,116,70.48,117,75.76,115.3c2.3-.74,4.6-2.09,7-2.24s4.93,1.3,7.15,2.06q7.5,2.55,15.18,4.49C64.93,143.72,11.69,114.09,12,66.69,12,38.4,33.39,12,61.31,6.88,92.21.63,122.94,22.7,131.68,52.15Z"/><path class="cls-1" d="M65.32,81A2.12,2.12,0,0,1,65,83.15L64,84.55a2.13,2.13,0,0,1-2,.81l-1.76-.24a2.11,2.11,0,0,1-1.68-1.31l-.67-1.64a2.13,2.13,0,0,1,.28-2.11l1.09-1.41a2.13,2.13,0,0,1,2-.8l1.76.24a2.12,2.12,0,0,1,1.68,1.31Z"/><path class="cls-1" d="M51.68,98.8c1.84.32,2.85,1.54,2,3.37-.41.94-1.09,2.31-2.15,2.51a3.48,3.48,0,0,1-2.3-.18,5.07,5.07,0,0,1-.85-.75,7.72,7.72,0,0,1-1.41-2.2,9,9,0,0,1-.45-1.26.72.72,0,0,1,.13-.37C47.66,98.45,50.11,98.47,51.68,98.8Z"/><path class="cls-1" d="M48.36,103.75a5.07,5.07,0,0,0,.85.75,5.47,5.47,0,0,1-1.73-1.69,3.76,3.76,0,0,1-1-2.52,9,9,0,0,0,.45,1.26A7.72,7.72,0,0,0,48.36,103.75Z"/><path class="cls-1" d="M90.35,104.53V68l-.72-5.81h31.83a17.36,17.36,0,0,1,7.22,1.22,8.93,8.93,0,0,1,3.88,3.19,11.18,11.18,0,0,1,1.61,4.21,26.46,26.46,0,0,1,.36,4.23v4.24A15.83,15.83,0,0,1,134,83,11.42,11.42,0,0,1,132.16,87a10.17,10.17,0,0,1-3.95,3.16,15.52,15.52,0,0,1-6.75,1.26h-7.33q-4.53,0-8.44-.21t-5.86-.36v13.72Zm9.48-20h19.54c2.16,0,3.64-.53,4.46-1.59a6,6,0,0,0,1.22-3.8V74.57a6.2,6.2,0,0,0-1.22-3.88c-.82-1-2.28-1.58-4.38-1.58H99.83Z"/><path class="cls-1" d="M157,104.53a17.91,17.91,0,0,1-7.91-1.44,8.21,8.21,0,0,1-4.06-4.31,18.71,18.71,0,0,1-1.18-7.11V75.07a18.64,18.64,0,0,1,1.15-7,8.19,8.19,0,0,1,4-4.31,17.78,17.78,0,0,1,8-1.47h21a17.38,17.38,0,0,1,7.87,1.47,8.39,8.39,0,0,1,4,4.31,18.21,18.21,0,0,1,1.19,7v16.6q0,6.31-2.81,9.59T178,104.53Zm2.08-6.9H176a5.84,5.84,0,0,0,4.13-1.36,4.86,4.86,0,0,0,1.47-3.74V74.21a4.76,4.76,0,0,0-1.51-3.55A5.61,5.61,0,0,0,176,69.18H159.1a6.14,6.14,0,0,0-4.17,1.37,4.6,4.6,0,0,0-1.58,3.66V92.53a4.69,4.69,0,0,0,1.55,3.77A6.21,6.21,0,0,0,159.1,97.63Z"/><path class="cls-1" d="M201.84,104.53l.72-5.75V62.29H212V97.63h29.74l2.87,6.11c0,.19-.64.37-1.93.54a62.25,62.25,0,0,1-6.69.25Z"/><path class="cls-1" d="M245.37,104.53l21.05-42.24h14.15l21,42.24H290.49l-4.24-9.13H260.53l-4.67,9.13Zm17.75-16.17h20.47l-9.84-19.61H273Z"/><path class="cls-1" d="M353.2,105.25a18.08,18.08,0,0,1-5.64-.9,17.11,17.11,0,0,1-6.29-4.42l-5.17-5.17A20.06,20.06,0,0,0,329.17,90a25.56,25.56,0,0,0-9.45-1.51H317.5v16H308V68l-.72-5.81h31.83a17.36,17.36,0,0,1,7.22,1.22,8.93,8.93,0,0,1,3.88,3.19,11.18,11.18,0,0,1,1.61,4.21,26.46,26.46,0,0,1,.36,4.23v1.37a16.19,16.19,0,0,1-.43,3.52,11.74,11.74,0,0,1-1.65,3.81,10,10,0,0,1-3.49,3.16,13.58,13.58,0,0,1-5.92,1.51A22.48,22.48,0,0,1,343.07,90c1,.7,1.95,1.45,3,2.26s2,1.56,2.84,2.23a22.68,22.68,0,0,0,2,1.44A20.72,20.72,0,0,0,355.5,98a16.14,16.14,0,0,0,3.3.65l1.51.07-1.44,5.82a15.59,15.59,0,0,1-2.15.46A21.36,21.36,0,0,1,353.2,105.25ZM328.27,82c1.82,0,3.45,0,4.89-.11s2.73-.15,3.87-.25c2.11-.24,3.58-.82,4.42-1.76a5.21,5.21,0,0,0,1.26-3.63V74.57a6.2,6.2,0,0,0-1.22-3.88c-.82-1-2.28-1.58-4.38-1.58H317.5v12.5c2.1.15,4,.24,5.81.29S326.74,82,328.27,82Z"/><path class="cls-1" d="M366.77,104.53V62.29h9.49v42.24Z"/><path class="cls-1" d="M395.79,104.53a43.77,43.77,0,0,1-7.18-.43c-1.53-.29-2.3-.63-2.3-1l2.88-6.25q1.65.28,8.22.54t18.07.25h1.36q3.09,0,4.38-1.11a4.72,4.72,0,0,0,1.3-3.77V91.31a5.08,5.08,0,0,0-1-3.59c-.7-.72-2.24-1.08-4.64-1.08H400.18q-7.26,0-10.56-2.69t-3.31-8.8V74a14.12,14.12,0,0,1,1.19-5.82,9.19,9.19,0,0,1,4.06-4.28,16.27,16.27,0,0,1,7.9-1.61H419a50.63,50.63,0,0,1,7.9.5c2,.34,3,.7,3,1.08l-1.44,6c-1.25-.14-4.07-.3-8.48-.46s-10.32-.26-17.74-.26l-.79-.07c-2.2,0-3.69.45-4.45,1.33a5.23,5.23,0,0,0-1.23,3.34V75a4.55,4.55,0,0,0,1.33,3.56c.89.79,2.36,1.18,4.42,1.18h15.95a28.64,28.64,0,0,1,7.83.94,8.79,8.79,0,0,1,5,3.41Q432,86.57,432,91.38v1.15a13.06,13.06,0,0,1-2.77,8.69q-2.76,3.32-9.59,3.31Z"/></svg>